<?xml version="1.0" encoding="UTF-8"?>
<svg xmlns="http://www.w3.org/2000/svg" xmlns:xlink="http://www.w3.org/1999/xlink" width="24.75pt" height="24pt" viewBox="0 0 24.75 24" version="1.1">
<defs>
<clipPath id="clip1">
  <path d="M 0.375 3 L 24.375 3 L 24.375 22 L 0.375 22 Z M 0.375 3 "/>
</clipPath>
<filter id="alpha" filterUnits="objectBoundingBox" x="0%" y="0%" width="100%" height="100%">
  <feColorMatrix type="matrix" in="SourceGraphic" values="0 0 0 0 1 0 0 0 0 1 0 0 0 0 1 0 0 0 1 0"/>
</filter>
<clipPath id="clip3">
  <path d="M 0 0 L 24.75 0 L 24.75 18.75 L 0 18.75 Z M 0 0 "/>
</clipPath>
<clipPath id="clip2">
  <rect x="0" y="0" width="25" height="19"/>
</clipPath>
<g id="surface9" clip-path="url(#clip2)">
<g clip-path="url(#clip3)" clip-rule="nonzero">
<path style=" stroke:none;fill-rule:nonzero;fill:rgb(100%,100%,100%);fill-opacity:1;" d="M 24.378906 0 L 0.378906 0 L 0.378906 18.582031 L 24.378906 18.582031 Z M 24.378906 0 "/>
</g>
</g>
<mask id="mask0">
  <g filter="url(#alpha)">
<use xlink:href="#surface9" transform="matrix(1,0,0,1,0,3)"/>
  </g>
</mask>
<clipPath id="clip5">
  <path d="M 0.375 3 L 24.375 3 L 24.375 22 L 0.375 22 Z M 0.375 3 "/>
</clipPath>
<clipPath id="clip4">
  <rect x="0" y="0" width="25" height="24"/>
</clipPath>
<g id="surface8" clip-path="url(#clip4)">
<g clip-path="url(#clip5)" clip-rule="nonzero">
<path style=" stroke:none;fill-rule:nonzero;fill:rgb(34.509804%,39.607843%,94.901961%);fill-opacity:1;" d="M 20.695312 4.65625 C 19.164062 3.953125 17.523438 3.4375 15.808594 3.140625 C 15.777344 3.136719 15.746094 3.152344 15.730469 3.179688 C 15.519531 3.554688 15.285156 4.042969 15.121094 4.425781 C 13.277344 4.152344 11.441406 4.152344 9.636719 4.425781 C 9.472656 4.035156 9.230469 3.554688 9.019531 3.179688 C 9.003906 3.152344 8.972656 3.136719 8.941406 3.140625 C 7.226562 3.4375 5.585938 3.953125 4.054688 4.65625 C 4.042969 4.660156 4.03125 4.671875 4.023438 4.683594 C 0.910156 9.328125 0.0585938 13.859375 0.476562 18.335938 C 0.480469 18.359375 0.492188 18.378906 0.507812 18.390625 C 2.5625 19.898438 4.550781 20.8125 6.5 21.417969 C 6.53125 21.429688 6.566406 21.417969 6.585938 21.390625 C 7.046875 20.761719 7.457031 20.097656 7.8125 19.398438 C 7.832031 19.359375 7.8125 19.308594 7.769531 19.292969 C 7.117188 19.046875 6.496094 18.746094 5.898438 18.402344 C 5.851562 18.375 5.847656 18.304688 5.890625 18.273438 C 6.015625 18.179688 6.140625 18.082031 6.261719 17.984375 C 6.285156 17.964844 6.3125 17.960938 6.339844 17.972656 C 10.265625 19.765625 14.519531 19.765625 18.402344 17.972656 C 18.425781 17.960938 18.457031 17.964844 18.480469 17.980469 C 18.597656 18.082031 18.726562 18.179688 18.851562 18.273438 C 18.894531 18.304688 18.890625 18.375 18.84375 18.402344 C 18.246094 18.75 17.625 19.046875 16.972656 19.292969 C 16.929688 19.308594 16.910156 19.359375 16.929688 19.398438 C 17.292969 20.097656 17.703125 20.761719 18.15625 21.390625 C 18.175781 21.417969 18.210938 21.429688 18.242188 21.417969 C 20.203125 20.8125 22.191406 19.898438 24.242188 18.390625 C 24.261719 18.378906 24.273438 18.359375 24.273438 18.335938 C 24.773438 13.164062 23.4375 8.667969 20.726562 4.683594 C 20.71875 4.671875 20.707031 4.660156 20.695312 4.65625 Z M 8.398438 15.609375 C 7.214844 15.609375 6.242188 14.527344 6.242188 13.195312 C 6.242188 11.859375 7.195312 10.777344 8.398438 10.777344 C 9.609375 10.777344 10.574219 11.871094 10.554688 13.195312 C 10.554688 14.527344 9.597656 15.609375 8.398438 15.609375 Z M 16.371094 15.609375 C 15.191406 15.609375 14.214844 14.527344 14.214844 13.195312 C 14.214844 11.859375 15.171875 10.777344 16.371094 10.777344 C 17.582031 10.777344 18.546875 11.871094 18.527344 13.195312 C 18.527344 14.527344 17.582031 15.609375 16.371094 15.609375 Z M 16.371094 15.609375 "/>
</g>
</g>
</defs>
<g id="surface1">
<g clip-path="url(#clip1)" clip-rule="nonzero">
<use xlink:href="#surface8" mask="url(#mask0)"/>
</g>
</g>
</svg>
