<?xml version="1.0" encoding="UTF-8"?>
<svg xmlns="http://www.w3.org/2000/svg" xmlns:xlink="http://www.w3.org/1999/xlink" width="24pt" height="24pt" viewBox="0 0 24 24" version="1.1">
<g id="surface26">
<path style=" stroke:none;fill-rule:nonzero;fill:rgb(8.627451%,8.627451%,7.843137%);fill-opacity:1;" d="M 12 0 C 5.375 0 0 5.382812 0 12.019531 C 0 17.328125 3.4375 21.835938 8.207031 23.425781 C 8.804688 23.535156 9.027344 23.164062 9.027344 22.847656 C 9.027344 22.558594 9.015625 21.613281 9.011719 20.609375 C 5.671875 21.335938 4.96875 19.191406 4.96875 19.191406 C 4.421875 17.800781 3.632812 17.429688 3.632812 17.429688 C 2.546875 16.683594 3.71875 16.699219 3.71875 16.699219 C 4.921875 16.785156 5.554688 17.9375 5.554688 17.9375 C 6.625 19.777344 8.363281 19.246094 9.046875 18.9375 C 9.15625 18.160156 9.46875 17.632812 9.808594 17.332031 C 7.144531 17.027344 4.34375 15.996094 4.34375 11.390625 C 4.34375 10.078125 4.8125 9.007812 5.578125 8.164062 C 5.453125 7.863281 5.042969 6.640625 5.695312 4.984375 C 5.695312 4.984375 6.703125 4.660156 8.996094 6.214844 C 9.953125 5.949219 10.980469 5.816406 12 5.8125 C 13.019531 5.816406 14.046875 5.949219 15.007812 6.214844 C 17.296875 4.660156 18.304688 4.984375 18.304688 4.984375 C 18.957031 6.640625 18.546875 7.863281 18.421875 8.164062 C 19.191406 9.007812 19.65625 10.078125 19.65625 11.390625 C 19.65625 16.007812 16.847656 17.023438 14.175781 17.320312 C 14.605469 17.695312 14.988281 18.425781 14.988281 19.546875 C 14.988281 21.15625 14.976562 22.449219 14.976562 22.847656 C 14.976562 23.164062 15.191406 23.539062 15.800781 23.421875 C 20.566406 21.832031 24 17.328125 24 12.019531 C 24 5.382812 18.628906 0 12 0 Z M 4.496094 17.121094 C 4.46875 17.179688 4.375 17.199219 4.289062 17.15625 C 4.203125 17.117188 4.152344 17.039062 4.179688 16.976562 C 4.207031 16.917969 4.300781 16.898438 4.386719 16.941406 C 4.476562 16.980469 4.523438 17.0625 4.496094 17.121094 Z M 5.085938 17.648438 C 5.027344 17.703125 4.914062 17.675781 4.839844 17.59375 C 4.761719 17.511719 4.746094 17.398438 4.804688 17.34375 C 4.863281 17.289062 4.972656 17.316406 5.050781 17.398438 C 5.128906 17.484375 5.144531 17.59375 5.085938 17.648438 Z M 5.488281 18.324219 C 5.417969 18.375 5.296875 18.328125 5.222656 18.21875 C 5.148438 18.113281 5.148438 17.984375 5.222656 17.933594 C 5.296875 17.882812 5.417969 17.929688 5.492188 18.035156 C 5.566406 18.144531 5.566406 18.273438 5.488281 18.324219 Z M 6.175781 19.105469 C 6.109375 19.179688 5.96875 19.160156 5.867188 19.058594 C 5.761719 18.960938 5.730469 18.824219 5.796875 18.753906 C 5.863281 18.679688 6.003906 18.699219 6.109375 18.796875 C 6.210938 18.894531 6.246094 19.035156 6.175781 19.105469 Z M 7.058594 19.371094 C 7.03125 19.464844 6.894531 19.507812 6.757812 19.464844 C 6.625 19.425781 6.535156 19.316406 6.5625 19.21875 C 6.589844 19.125 6.726562 19.082031 6.863281 19.125 C 7 19.164062 7.085938 19.273438 7.058594 19.371094 Z M 8.066406 19.480469 C 8.070312 19.582031 7.953125 19.664062 7.8125 19.664062 C 7.667969 19.667969 7.554688 19.585938 7.550781 19.488281 C 7.550781 19.390625 7.664062 19.308594 7.808594 19.304688 C 7.949219 19.304688 8.066406 19.382812 8.066406 19.480469 Z M 9.054688 19.445312 C 9.074219 19.539062 8.972656 19.640625 8.832031 19.667969 C 8.695312 19.691406 8.5625 19.632812 8.546875 19.535156 C 8.53125 19.4375 8.628906 19.335938 8.769531 19.3125 C 8.910156 19.289062 9.039062 19.34375 9.054688 19.445312 Z M 9.054688 19.445312 "/>
</g>
</svg>
