<?xml version="1.0" encoding="UTF-8"?>
<svg xmlns="http://www.w3.org/2000/svg" xmlns:xlink="http://www.w3.org/1999/xlink" width="631.425pt" height="446.475pt" viewBox="0 0 631.425 446.475" version="1.1">
<g id="surface31">
<path style=" stroke:none;fill-rule:nonzero;fill:rgb(0%,0%,0%);fill-opacity:1;" d="M 499.726562 222.375 C 499.726562 198 469.203125 174.898438 422.402344 160.574219 C 433.203125 112.875 428.402344 74.925781 407.253906 62.773438 C 402.378906 59.921875 396.679688 58.574219 390.453125 58.574219 L 390.453125 75.300781 C 393.902344 75.300781 396.679688 75.976562 399.003906 77.25 C 409.203125 83.101562 413.628906 105.375 410.179688 134.023438 C 409.355469 141.074219 408.003906 148.5 406.355469 156.074219 C 391.65625 152.472656 375.605469 149.699219 358.730469 147.898438 C 348.605469 134.023438 338.105469 121.421875 327.53125 110.398438 C 351.980469 87.671875 374.929688 75.222656 390.53125 75.222656 L 390.523438 58.5 C 369.898438 58.5 342.898438 73.199219 315.597656 98.699219 C 288.296875 73.347656 261.296875 58.800781 240.671875 58.800781 L 240.671875 75.527344 C 256.195312 75.527344 279.222656 87.902344 303.671875 110.476562 C 293.171875 121.5 282.671875 134.027344 272.695312 147.902344 C 255.746094 149.703125 239.695312 152.476562 224.996094 156.152344 C 223.269531 148.652344 221.996094 141.378906 221.097656 134.402344 C 217.574219 105.753906 221.921875 83.476562 232.046875 77.550781 C 234.296875 76.199219 237.222656 75.601562 240.671875 75.601562 L 240.675781 58.875 C 234.375 58.875 228.675781 60.226562 223.726562 63.074219 C 202.652344 75.222656 197.925781 113.097656 208.800781 160.648438 C 162.152344 175.046875 131.777344 198.074219 131.777344 222.375 C 131.777344 246.75 162.300781 269.851562 209.101562 284.175781 C 198.300781 331.875 203.101562 369.824219 224.25 381.976562 C 229.125 384.828125 234.824219 386.175781 241.125 386.175781 C 261.75 386.175781 288.75 371.476562 316.050781 345.976562 C 343.351562 371.328125 370.351562 385.875 390.976562 385.875 C 397.277344 385.875 402.976562 384.523438 407.925781 381.675781 C 429 369.527344 433.726562 331.652344 422.851562 284.101562 C 469.351562 269.777344 499.726562 246.675781 499.726562 222.375 Z M 499.726562 222.375 "/>
<path style=" stroke:none;fill-rule:nonzero;fill:rgb(0%,0%,0%);fill-opacity:1;" d="M 349.949219 222.375 C 349.949219 241.304688 334.605469 256.648438 315.675781 256.648438 C 296.746094 256.648438 281.398438 241.304688 281.398438 222.375 C 281.398438 203.445312 296.746094 188.101562 315.675781 188.101562 C 334.605469 188.101562 349.949219 203.445312 349.949219 222.375 "/>
</g>
</svg>
