<?xml version="1.0" encoding="UTF-8"?>
<svg xmlns="http://www.w3.org/2000/svg" xmlns:xlink="http://www.w3.org/1999/xlink" width="24.75pt" height="24pt" viewBox="0 0 24.75 24" version="1.1">
<defs>
<clipPath id="clip1">
  <path d="M 12 2 L 24.375 2 L 24.375 21 L 12 21 Z M 12 2 "/>
</clipPath>
<clipPath id="clip2">
  <path d="M 0.375 2 L 13 2 L 13 21 L 0.375 21 Z M 0.375 2 "/>
</clipPath>
</defs>
<g id="surface36">
<g clip-path="url(#clip1)" clip-rule="nonzero">
<path style=" stroke:none;fill-rule:evenodd;fill:rgb(71.764706%,94.117647%,93.72549%);fill-opacity:0.7;" d="M 12.75 5.902344 C 12.75 4.863281 13.484375 3.964844 14.507812 3.761719 L 22.144531 2.25 C 23.492188 1.980469 24.75 3.011719 24.75 4.386719 L 24.75 16.601562 C 24.75 17.640625 24.015625 18.539062 22.992188 18.742188 L 15.355469 20.253906 C 14.007812 20.523438 12.75 19.492188 12.75 18.117188 Z M 12.75 5.902344 "/>
</g>
<g clip-path="url(#clip2)" clip-rule="nonzero">
<path style=" stroke:none;fill-rule:evenodd;fill:rgb(52.941176%,90.196078%,89.803922%);fill-opacity:1;" d="M 0.75 4.390625 C 0.75 3.015625 2.007812 1.980469 3.355469 2.25 L 10.992188 3.765625 C 12.015625 3.964844 12.75 4.863281 12.75 5.902344 L 12.75 18.117188 C 12.75 19.492188 11.492188 20.523438 10.144531 20.257812 L 2.507812 18.742188 C 1.484375 18.539062 0.75 17.644531 0.75 16.601562 Z M 0.75 4.390625 "/>
</g>
<path style=" stroke:none;fill-rule:evenodd;fill:rgb(38.039216%,75.686275%,99.215686%);fill-opacity:1;" d="M 11.65625 4.285156 C 11.65625 4.285156 12.613281 4.472656 13.050781 4.933594 C 13.488281 5.394531 13.839844 6.773438 13.839844 6.773438 C 13.839844 6.773438 13.839844 18.832031 13.839844 20.222656 C 13.839844 21.613281 14.53125 23.5625 14.53125 23.5625 L 13.050781 21.671875 L 12.191406 23.5625 C 12.191406 23.5625 11.65625 21.808594 11.65625 20.339844 C 11.65625 18.875 11.65625 4.285156 11.65625 4.285156 Z M 11.65625 4.285156 "/>
</g>
</svg>
