<?xml version="1.0" encoding="UTF-8"?>
<svg xmlns="http://www.w3.org/2000/svg" xmlns:xlink="http://www.w3.org/1999/xlink" width="24pt" height="24pt" viewBox="0 0 24 24" version="1.1">
<g id="surface41">
<path style=" stroke:none;fill-rule:nonzero;fill:rgb(92.941176%,11.372549%,14.117647%);fill-opacity:1;" d="M 23.5 6.335938 C 23.222656 5.316406 22.410156 4.515625 21.375 4.246094 C 19.503906 3.75 12 3.75 12 3.75 C 12 3.75 4.496094 3.75 2.625 4.246094 C 1.589844 4.515625 0.777344 5.316406 0.5 6.335938 C 0 8.179688 0 12.027344 0 12.027344 C 0 12.027344 0 15.875 0.5 17.71875 C 0.777344 18.734375 1.589844 19.535156 2.625 19.808594 C 4.496094 20.300781 12 20.300781 12 20.300781 C 12 20.300781 19.503906 20.300781 21.375 19.808594 C 22.410156 19.535156 23.222656 18.734375 23.5 17.71875 C 24 15.875 24 12.027344 24 12.027344 C 24 12.027344 24 8.179688 23.5 6.335938 Z M 23.5 6.335938 "/>
<path style=" stroke:none;fill-rule:nonzero;fill:rgb(100%,100%,100%);fill-opacity:1;" d="M 9.546875 15.519531 L 15.816406 12.027344 L 9.546875 8.535156 Z M 9.546875 15.519531 "/>
</g>
</svg>
